<?xml version="1.0" standalone="no"?>
<!DOCTYPE svg PUBLIC "-//W3C//DTD SVG 20010904//EN"
 "http://www.w3.org/TR/2001/REC-SVG-20010904/DTD/svg10.dtd">
<svg version="1.0" xmlns="http://www.w3.org/2000/svg"
 width="960.000000pt" height="720.000000pt" viewBox="0 0 960.000000 720.000000"
 preserveAspectRatio="xMidYMid meet">
<metadata>
Created by potrace 1.16, written by Peter Selinger 2001-2019
</metadata>
<g transform="translate(0.000000,720.000000) scale(0.100000,-0.100000)"
fill="#000000" stroke="none">
<path d="M3740 6041 c-7 -13 -10 -660 -10 -2020 l0 -2001 30 0 30 0 0 1995 0
1995 380 0 380 0 0 -165 0 -165 25 0 25 0 0 178 c0 125 -4 182 -12 190 -9 9
-117 12 -425 12 -397 0 -413 -1 -423 -19z"/>
<path d="M5330 6041 c-7 -13 -10 -660 -10 -2020 l0 -2001 30 0 30 0 0 1995 0
1995 380 0 380 0 0 -165 0 -165 25 0 25 0 0 178 c0 125 -4 182 -12 190 -9 9
-117 12 -425 12 -397 0 -413 -1 -423 -19z"/>
<path d="M4411 5654 c-194 -52 -335 -188 -361 -350 -6 -36 -10 -675 -10 -1676
l0 -1618 -357 0 -358 1 30 21 c56 40 145 139 185 206 218 368 74 852 -307
1029 -97 45 -180 63 -293 63 -120 0 -202 -19 -310 -72 -117 -58 -247 -186
-308 -305 -106 -206 -111 -451 -12 -658 38 -80 123 -187 190 -240 l51 -40
-201 -3 -200 -2 0 -340 0 -340 2535 0 2535 0 0 340 0 340 -265 0 -265 0 -2
1663 -3 1662 -33 67 c-58 118 -185 213 -337 253 -77 20 -234 19 -310 0 -197
-52 -338 -187 -365 -351 -6 -36 -10 -675 -10 -1676 l0 -1618 -265 0 -265 0 -2
1663 -3 1662 -33 67 c-58 118 -185 213 -337 253 -75 19 -241 19 -314 -1z m619
-814 l0 -30 -455 0 -455 0 0 30 0 30 455 0 455 0 0 -30z m1590 0 l0 -30 -455
0 -455 0 0 30 0 30 455 0 455 0 0 -30z m-1590 -590 l0 -30 -455 0 -455 0 0 30
0 30 455 0 455 0 0 -30z m1590 0 l0 -30 -455 0 -455 0 0 30 0 30 455 0 455 0
0 -30z m-1590 -560 l0 -30 -455 0 -455 0 0 30 0 30 455 0 455 0 0 -30z m1590
0 l0 -30 -455 0 -455 0 0 30 0 30 455 0 455 0 0 -30z m-1590 -570 l0 -30 -455
0 -455 0 0 30 0 30 455 0 455 0 0 -30z m1590 0 l0 -30 -455 0 -455 0 0 30 0
30 455 0 455 0 0 -30z m-1590 -570 l0 -30 -455 0 -455 0 0 30 0 30 455 0 455
0 0 -30z m1590 0 l0 -30 -455 0 -455 0 0 30 0 30 455 0 455 0 0 -30z"/>
</g>
</svg>
